<svg width="101" height="112" fill="none" xmlns="http://www.w3.org/2000/svg"><path d="M26.876 1.78c-2.719 2.192-4.298 6.49-4.035 11.314.263 4.035-1.14 6.403-2.894 4.649-1.754-1.754-5-1.228-7.017 1.14-1.228 1.403-2.456 2.017-3.508 1.666-2.72-.877-4.912.527-6.316 4.035-.701 1.842-1.754 3.596-2.28 3.947-1.403.877-1.053 4.649 1.316 15.525C7.58 69.58 21.702 110.19 25.56 111.593c2.193.877 20.086-1.754 31.576-4.473 11.403-2.807 22.717-6.491 30.874-10.087 4.65-2.017 4.912-2.368 4.912-5.262 0-2.193.526-3.333 1.755-4.035 1.14-.614 1.754-1.842 1.754-3.596 0-1.667.877-3.772 2.192-5.35 2.632-3.07 2.719-3.948.439-6.842-.965-1.228-1.754-2.456-1.754-2.807 0-.35-3.07-6.14-6.93-12.718C79.942 38.092 65.733 8.972 65.733 5.814c0-.614-.614-1.93-1.403-2.982-1.316-1.93-1.492-1.93-3.597-.614-1.842 1.228-2.368 1.316-3.596.175-3.508-2.982-7.63-2.105-9.034 1.842-.702 2.105-1.228 2.456-3.245 2.105-1.316-.175-3.333-1.315-4.561-2.368-4.824-4.385-9.648-5.175-13.42-2.193zm10.438 2.63c4.034 2.983 3.508 6.14-1.053 6.14-1.93 0-3.333.614-4.122 1.755-.878 1.315-2.018 1.666-4.21 1.403-3.772-.35-4.123-2.017-1.667-7.105 2.368-4.911 6.227-5.7 11.052-2.192zm17.805-.526c.877 1.053.614 1.58-1.579 2.632-3.333 1.754-3.596 1.754-3.596-.176 0-3.245 3.245-4.736 5.175-2.456zm9.736 5.965c2.719 7.28 12.718 28.155 17.98 37.54 12.017 21.314 15.35 27.892 14.911 29.032-.79 2.193-9.297 6.842-17.454 9.56-8.245 2.808-26.664 7.193-45.522 10.79-.614.175-4.035-7.018-5.877-12.543C14.07 40.81 9.071 25.374 9.597 24.497c.526-.79 1.491-.176 3.42 1.93 2.632 2.806 3.597 2.367 1.843-.966-.702-1.315-.439-1.666 1.228-2.105 1.14-.263 2.719-.79 3.508-1.052.965-.351 1.666.175 2.28 1.842 1.053 2.719 2.544 2.28 2.018-.702-.351-1.754.088-2.193 3.245-3.245 3.333-1.14 3.772-1.053 4.561.263 1.14 2.105 2.72 1.842 2.193-.263-.351-1.316.175-2.105 2.017-3.07 3.246-1.667 4.386-1.667 4.386 0 0 .701.614 1.315 1.315 1.315.79 0 1.228-.701 1.053-1.93-.088-1.49.614-2.367 3.333-3.595 2.28-1.14 3.596-1.316 3.772-.702.175.526.964.965 1.666.965.877 0 1.14-.527.79-1.404-.351-.877.087-1.93.964-2.63 1.842-1.404 4.649-1.58 4.649-.352 0 .439.438.877.877.877.526 0 .877-.964.877-2.105 0-1.842.877-2.894 2.72-3.07.35-.087 1.49 2.369 2.543 5.35zm-18.683-.526c.264.789-3.245 2.982-4.56 2.982-1.14 0-.264-2.632 1.14-3.421 1.666-1.053 2.982-.877 3.42.439zm-9.735 5.175c-1.93 1.49-3.158 1.666-3.158.613 0-1.228 1.052-1.93 2.982-1.93 1.842.089 1.842.089.175 1.317zm-7.544 2.104c0 .878-2.631 2.106-3.245 1.492-.263-.264-.175-.79.175-1.316.702-1.14 3.07-1.316 3.07-.175zM18.368 19.76c0 .877-.877 1.316-2.28 1.316-1.93 0-2.193-.176-1.228-1.316.614-.702 1.666-1.316 2.28-1.316.702 0 1.228.614 1.228 1.316zM6.966 24.584a.879.879 0 01-.877.877c-.439 0-.878-.438-.878-.877a.88.88 0 01.878-.877c.526 0 .877.35.877.877zm9.472 30.173C25.21 81.07 31.086 97.12 32.49 98.612c1.578 1.754 43.065-7.894 54.205-12.63 3.947-1.667 6.754-2.456 7.28-1.93 1.14 1.14-.351 2.017-12.017 7.017-16.665 7.017-31.488 10.964-45.346 12.016l-7.28.614-1.842-4.297c-1.052-2.281-3.86-10.35-6.315-17.806-2.456-7.455-5.79-17.542-7.543-22.454-2.544-7.192-8.42-28.506-8.42-30.523 0-.263.526-.526 1.14-.526.79 0 4.385 9.472 10.086 26.664zM4.773 36.425c1.754 7.631 5.877 21.49 10.35 34.207 1.666 4.825 4.298 12.718 5.876 17.542 1.492 4.825 3.86 10.789 5.088 13.333l2.28 4.561 6.578-.439c7.193-.614 19.034-2.807 28.068-5.175 6.227-1.666 24.384-8.771 26.138-10.262.614-.526 1.14-.702 1.14-.439 0 .263.263 1.053.526 1.842.614 1.579-1.49 2.72-12.893 6.93-10.526 3.946-27.542 8.332-38.505 9.911-13.332 1.842-12.718 2.017-15.876-4.123-5.789-11.49-18.77-54.38-21.401-70.782-1.053-6.49 1.14-4.123 2.63 2.894z" fill="#fff"/><path d="M54.617 34.615c-1.12-1.376-2.947-1.881-4.683-1.724-2.18.213-4.077 1.498-5.828 2.683l.795.086-2.4-2.957-.672-.161-2.49 1.109-.285.756 1.695 3.656.164-.662c-3.215 2.29-5.718 5.74-6.196 9.727-.462 3.825 1.016 7.856 4.339 9.956 1.724 1.079 3.773 1.608 5.8 1.328l-.17-1.143c-3.234.459-6.461-1.473-7.901-4.33-1.65-3.277-1.174-7.223.714-10.276 1.058-1.743 2.49-3.192 4.145-4.383l.15-.682-1.697-3.656-.286.77 2.486-1.12-.686-.155 2.417 2.95.8.083c1.534-1.041 3.18-2.16 5.064-2.41l3.852 1.282.873-.727z" fill="#fff"/><path d="M54.172 35.557l2.036 3.403-2.133 2.377-1.517-.292-1.91-1.403c-1.452-.449-3.032.153-4.305.835-2.789 1.485-5.123 4.128-4.882 7.45l1.885 3.883 3.984 1.122c3.307-.275 5.795-2.634 8.78-3.814 1.387-.55 2.902-.745 4.34-.255l2.922 2.082c1.704 2.035 2.43 4.702 2.215 7.301-.231 2.776-1.383 5.386-3.08 7.576-1.718 2.24-3.984 4.046-6.504 5.27-2.28 1.11-5.3 2.15-7.756 1.011L46.9 70.93l-.892.735c1.74 2.493 5.277 2.306 7.846 1.514 2.805-.843 5.43-2.438 7.542-4.44 4.162-3.917 6.819-10.106 4.548-15.692-.987-2.415-2.92-4.707-5.53-5.405-1.607-.415-3.245-.173-4.774.42-1.68.66-3.167 1.728-4.782 2.555-2.358 1.22-6.047 2.145-7.65-.741-.71-1.26-.819-2.829-.333-4.195.561-1.522 1.717-2.726 3.041-3.627l2.158-1.11 1.999-.267 1.884 1.346 1.839.48 3.194-2.064c.709-1.399.314-3.077-.522-4.315l-1.632-1.506-.664.939z" fill="#fff"/><path d="M45.331 59.035l.265-.118.316-.323-.011-.435-.768-.28-.264.117-.317.324.012.435.767.28z" fill="#fff"/><path d="M44.924 58.694c2.962.698 5.583-1.166 8.301-2.004l3.568-.27 2.42 2.61c.542 2.905-2.026 5.57-4.494 6.636-1.31.583-2.661.663-4 .19-1.344-.463-2.673-.988-4.039-.332-1.341.651-2.245 2.068-2.075 3.562.19 1.52 1.358 2.744 2.816 3.09l.633-.512-.509-.626-1.789-2.633 2.38-2.075 1.994.533 2.137.47c1.477.018 2.867-.479 4.11-1.256 2.43-1.501 4.599-4.334 3.957-7.343l-2.477-3.16-3.716-.293c-1.527.294-2.925.95-4.337 1.532-1.516.62-3.117 1.13-4.763.747l-.64.508.523.626zm13.038 12.865l1.028 2.032.66.16 2.958-1.758.159-.659-1.2-1.888-.89.734 1.046 1.619.153-.677-2.691 1.584.675.152-.853-1.765-1.045.466zm-12.31-29.372l-.655-.608-.856.706c1.241 3.52 2.51 7.054 3.784 10.58l1.038-.462c-1.25-3.537-2.519-7.072-3.779-10.583l-.857.686.653.602.796-.11-.124-.811zm.54-1.267a94.304 94.304 0 014.342 11.808l.758.285.287-.75a94.576 94.576 0 00-4.343-11.807l-1.044.465z" fill="#fff"/><path d="M50.655 57.362a64.796 64.796 0 014.055 8.579l1.045-.465a63.067 63.067 0 00-4.056-8.579l-.758-.305-.286.77zm1.782-1.135l4.364 9.802 1.062-.473c-1.453-3.264-2.91-6.539-4.364-9.802l-1.062.473zM40.97 36.998l1.054-2.147-1.061-.407-1.056 2.141 1.064.413z" fill="#fff"/><path d="M41.238 37.954l1.74-2.804-.938-.665-1.746 2.807.944.662z" fill="#fff"/><path d="M35.92 47.063a105.102 105.102 0 017.443-10.553l-.938-.665a106.09 106.09 0 00-7.444 10.553l.938.665z" fill="#fff"/><path d="M35.402 47.221l-.946 2.052 1.008.546c3.219-4.85 6.431-9.717 9.65-14.566l-.939-.665-9.64 14.562 1.004.534.802-1.798-.939-.665zm.401 5.067c2.977-4.56 5.936-9.11 8.904-13.659l2.555-3.911-.944-.676a3436.372 3436.372 0 01-8.902 13.665l-2.534 3.909.921.672zm6.141-6.648a71.43 71.43 0 006.851-10.978l-.33-.74-.733.327a71.127 71.127 0 01-6.726 10.727l.938.665zm4.86-4.176c1.398-2.402 2.793-4.802 4.195-7.2l-.128-.788-.793.116c-1.403 2.397-2.803 4.8-4.203 7.203l.116.787.813-.118zm2.123-.559c1.258-1.927 2.498-3.852 3.766-5.763l-.946-.681c-1.243 1.92-2.5 3.853-3.743 5.773l.923.671zm2.188.412c1.005-1.713 2-3.428 3.01-5.142l-.136-.806-.803.141c-.999 1.71-1.993 3.425-2.992 5.134l.121.805.8-.132zm1.713.853c1.151-1.718 2.295-3.431 3.46-5.147l-.938-.665c-1.148 1.709-2.299 3.425-3.46 5.147l.938.664zM37.315 53.22a54.043 54.043 0 014.315-6.962l-.927-.67a55.899 55.899 0 00-4.454 7.213l.332.745.734-.327zm1.259 1.888c.97-1.873 1.928-3.754 2.89-5.617l-.326-.734-.734.327c-.98 1.87-1.935 3.737-2.899 5.6l.335.75.734-.326zm1.565 1.303c.832-1.926 1.662-3.831 2.492-5.764l-1.064-.419a926.337 926.337 0 00-2.484 5.774l1.056.41zm1.631 1.315c.924-2.029 1.849-4.084 2.77-6.118l-1.08-.42c-.913 2.051-1.834 4.085-2.748 6.136l1.058.402zm2.237.775a27.678 27.678 0 002.349-5.51l-1.06-.408a26.48 26.48 0 01-2.227 5.254l.133.786.805-.122zm2.31.258a824.788 824.788 0 001.902-5.528l-1.072-.403-1.89 5.524 1.06.407zm2.215-.307a892.62 892.62 0 001.612-6.104l-.332-.745-.744.331c-.53 2.03-1.067 4.061-1.59 6.107l.327.734.727-.323zM50.93 56.9a27.827 27.827 0 011.17-5.426l-1.083-.41a30.017 30.017 0 00-1.23 5.703l1.143.134zm2.216-1.403a25.928 25.928 0 011.11-5.027l-1.072-.402a27.007 27.007 0 00-1.18 5.295l1.142.134zm1.652.491c.76-2.26 1.505-4.52 2.262-6.771l-1.068-.424c-.76 2.273-1.52 4.519-2.27 6.781l1.076.414zm1.368.075c1.058-2.38 2.092-4.768 3.149-7.153l-1.079-.4c-1.039 2.378-2.09 4.754-3.13 7.131l1.06.422zm1.638.637a47.292 47.292 0 013.113-6.989l-.125-.81-.808.13a51.723 51.723 0 00-3.249 7.245l1.069.423zm1.363.987c1.116-2.507 2.23-5.019 3.352-7.514l-1.066-.418a1632.877 1632.877 0 01-3.372 7.515l1.086.417zm.809 2.055a86.368 86.368 0 004.24-8.484l-1.086-.417a81.834 81.834 0 01-4.081 8.23l.121.806.806-.136z" fill="#fff"/><path d="M52.625 73.224A233.326 233.326 0 0062.693 57.95l2.62-4.448-.122-.805-.806.135a238.233 238.233 0 01-9.72 15.471 251.938 251.938 0 01-2.967 4.25l.927.67zm3.312-1.328a392.502 392.502 0 017.865-12.723l2.313-3.546-.929-.67a407.5 407.5 0 00-8.008 12.632l-2.18 3.643.939.664zm3.24-1.776c2.148-3.717 4.31-7.446 6.479-11.172l-.139-.797-.788.127c-2.164 3.724-4.326 7.454-6.49 11.178l.132.8.806-.136z" fill="#fff"/><path d="M49.68 72.11l-.421 1.12.914.642a31.542 31.542 0 005.222-7.446l-.335-.75-.744.33A29.234 29.234 0 0149.445 73l.896.643.4-1.125-1.062-.407z" fill="#fff"/><path d="M48.904 72.832a23.299 23.299 0 004.115-5.681l-.327-.734-.746.332a20.71 20.71 0 01-3.777 5.193l-.078.812.813.078z" fill="#fff"/><path d="M47.666 72.288a26.478 26.478 0 004.084-5.492l-.125-.81-.804.14a25.832 25.832 0 01-3.885 5.282l-.083.802.813.078zm-1.049-1.214c1.023-1.457 2.062-2.92 3.087-4.371l-.933-.668c-1.03 1.454-2.06 2.913-3.092 4.374l.938.665zm-.892-1.26l1.345-2.27-.939-.665-1.333 2.265.927.67zm.935-22.961l1.381-2.949-1.076-.414-1.358 2.952 1.054.41z" fill="#fff"/><path d="M46.622 44.37l.634-1.614.078-.813-.813-.078-1.033 2.388.5.623.634-.505zm1.352 3.78l.624-2.017-.938-.665-.826 2.553.5.637.64-.508zm.366 2.738l1.805-2.786-.938-.664-1.804 2.785.938.665zm1.676 1.182l.457-1.226-.327-.734-.734.327-.475 1.213.335.75.744-.33zm2.897 6.816l.359-1.107.072-.81-.807-.067-.744 2.158 1.12-.174zm.412 1.786l1.032-1.454-.922-.672-1.03 1.453.92.673zm1.265 1.751l.905-1.736-.335-.75-.734.326-.89 1.75.326.734.727-.324zm1.079 1.407l.573-.944.078-.813-.812-.078-.981 1.702 1.142.134zm.48 2.362l1.023-1.47-.92-.672-1.024 1.47.92.672zm3.609 6.165l1.276-2.53-1.142-.134-.868 1.774.734.89z" fill="#fff"/><path d="M54.617 34.615c-1.12-1.376-2.947-1.881-4.683-1.724-2.18.213-4.077 1.498-5.828 2.683l.795.086-2.4-2.957-.672-.161-2.49 1.109-.285.756 1.695 3.656.164-.662c-3.215 2.29-5.718 5.74-6.196 9.727-.462 3.825 1.016 7.856 4.339 9.956 1.724 1.079 3.773 1.608 5.8 1.328l-.17-1.143c-3.234.459-6.461-1.473-7.901-4.33-1.65-3.277-1.174-7.223.714-10.276 1.058-1.743 2.49-3.192 4.145-4.383l.15-.682-1.697-3.656-.286.77 2.486-1.12-.686-.155 2.417 2.95.8.083c1.534-1.041 3.18-2.16 5.064-2.41l3.852 1.282.873-.727z" fill="#fff"/><path d="M54.172 35.557l2.036 3.403-2.133 2.377-1.517-.292-1.91-1.403c-1.452-.449-3.032.153-4.305.835-2.789 1.485-5.123 4.128-4.882 7.45l1.885 3.883 3.984 1.122c3.307-.275 5.795-2.634 8.78-3.814 1.387-.55 2.902-.745 4.34-.255l2.922 2.082c1.704 2.035 2.43 4.702 2.215 7.301-.231 2.776-1.383 5.386-3.08 7.576-1.718 2.24-3.984 4.046-6.504 5.27-2.28 1.11-5.3 2.15-7.756 1.011L46.9 70.93l-.892.735c1.74 2.493 5.277 2.306 7.846 1.514 2.805-.843 5.43-2.438 7.542-4.44 4.162-3.917 6.819-10.106 4.548-15.692-.987-2.415-2.92-4.707-5.53-5.405-1.607-.415-3.245-.173-4.774.42-1.68.66-3.167 1.728-4.782 2.555-2.358 1.22-6.047 2.145-7.65-.741-.71-1.26-.819-2.829-.333-4.195.561-1.522 1.717-2.726 3.041-3.627l2.158-1.11 1.999-.267 1.884 1.346 1.839.48 3.194-2.064c.709-1.399.314-3.077-.522-4.315l-1.632-1.506-.664.939z" fill="#fff"/><path d="M45.331 59.035l.265-.118.316-.323-.011-.435-.768-.28-.264.117-.317.324.012.435.767.28z" fill="#fff"/><path d="M44.924 58.694c2.962.698 5.583-1.166 8.301-2.004l3.568-.27 2.42 2.61c.542 2.905-2.026 5.57-4.494 6.636-1.31.583-2.661.663-4 .19-1.344-.463-2.673-.988-4.039-.332-1.341.651-2.245 2.068-2.075 3.562.19 1.52 1.358 2.744 2.816 3.09l.633-.512-.509-.626-1.789-2.633 2.38-2.075 1.994.533 2.137.47c1.477.018 2.867-.479 4.11-1.256 2.43-1.501 4.599-4.334 3.957-7.343l-2.477-3.16-3.716-.293c-1.527.294-2.925.95-4.337 1.532-1.516.62-3.117 1.13-4.763.747l-.64.508.523.626zm13.038 12.865l1.028 2.032.66.16 2.958-1.758.159-.659-1.2-1.888-.89.734 1.046 1.619.153-.677-2.691 1.584.675.152-.853-1.765-1.045.466zm-12.31-29.372l-.655-.608-.856.706c1.241 3.52 2.51 7.054 3.784 10.58l1.038-.462c-1.25-3.537-2.519-7.072-3.779-10.583l-.857.686.653.602.796-.11-.124-.811zm.54-1.267a94.304 94.304 0 014.342 11.808l.758.285.287-.75a94.576 94.576 0 00-4.343-11.807l-1.044.465z" fill="#fff"/><path d="M50.655 57.362a64.796 64.796 0 014.055 8.579l1.045-.465a63.067 63.067 0 00-4.056-8.579l-.758-.305-.286.77zm1.782-1.135l4.364 9.802 1.062-.473c-1.453-3.264-2.91-6.539-4.364-9.802l-1.062.473zM40.97 36.998l1.054-2.147-1.061-.407-1.056 2.141 1.064.413z" fill="#fff"/><path d="M41.238 37.954l1.74-2.804-.938-.665-1.746 2.807.944.662z" fill="#fff"/><path d="M35.92 47.063a105.102 105.102 0 017.443-10.553l-.938-.665a106.09 106.09 0 00-7.444 10.553l.938.665z" fill="#fff"/><path d="M35.402 47.221l-.946 2.052 1.008.546c3.219-4.85 6.431-9.717 9.65-14.566l-.939-.665-9.64 14.562 1.004.534.802-1.798-.939-.665zm.401 5.067c2.977-4.56 5.936-9.11 8.904-13.659l2.555-3.911-.944-.676a3436.372 3436.372 0 01-8.902 13.665l-2.534 3.909.921.672zm6.141-6.648a71.43 71.43 0 006.851-10.978l-.33-.74-.733.327a71.127 71.127 0 01-6.726 10.727l.938.665zm4.86-4.176c1.398-2.402 2.793-4.802 4.195-7.2l-.128-.788-.793.116c-1.403 2.397-2.803 4.8-4.203 7.203l.116.787.813-.118zm2.123-.559c1.258-1.927 2.498-3.852 3.766-5.763l-.946-.681c-1.243 1.92-2.5 3.853-3.743 5.773l.923.671zm2.188.412c1.005-1.713 2-3.428 3.01-5.142l-.136-.806-.803.141c-.999 1.71-1.993 3.425-2.992 5.134l.121.805.8-.132zm1.713.853c1.151-1.718 2.295-3.431 3.46-5.147l-.938-.665c-1.148 1.709-2.299 3.425-3.46 5.147l.938.664zM37.315 53.22a54.043 54.043 0 014.315-6.962l-.927-.67a55.899 55.899 0 00-4.454 7.213l.332.745.734-.327zm1.259 1.888c.97-1.873 1.928-3.754 2.89-5.617l-.326-.734-.734.327c-.98 1.87-1.935 3.737-2.899 5.6l.335.75.734-.326zm1.565 1.303c.832-1.926 1.662-3.831 2.492-5.764l-1.064-.419a926.337 926.337 0 00-2.484 5.774l1.056.41zm1.631 1.315c.924-2.029 1.849-4.084 2.77-6.118l-1.08-.42c-.913 2.051-1.834 4.085-2.748 6.136l1.058.402zm2.237.775a27.678 27.678 0 002.349-5.51l-1.06-.408a26.48 26.48 0 01-2.227 5.254l.133.786.805-.122zm2.31.258a824.788 824.788 0 001.902-5.528l-1.072-.403-1.89 5.524 1.06.407zm2.215-.307a892.62 892.62 0 001.612-6.104l-.332-.745-.744.331c-.53 2.03-1.067 4.061-1.59 6.107l.327.734.727-.323zM50.93 56.9a27.827 27.827 0 011.17-5.426l-1.083-.41a30.017 30.017 0 00-1.23 5.703l1.143.134zm2.216-1.403a25.928 25.928 0 011.11-5.027l-1.072-.402a27.007 27.007 0 00-1.18 5.295l1.142.134zm1.652.491c.76-2.26 1.505-4.52 2.262-6.771l-1.068-.424c-.76 2.273-1.52 4.519-2.27 6.781l1.076.414zm1.368.075c1.058-2.38 2.092-4.768 3.149-7.153l-1.079-.4c-1.039 2.378-2.09 4.754-3.13 7.131l1.06.422zm1.638.637a47.292 47.292 0 013.113-6.989l-.125-.81-.808.13a51.723 51.723 0 00-3.249 7.245l1.069.423zm1.363.987c1.116-2.507 2.23-5.019 3.352-7.514l-1.066-.418a1632.877 1632.877 0 01-3.372 7.515l1.086.417zm.809 2.055a86.368 86.368 0 004.24-8.484l-1.086-.417a81.834 81.834 0 01-4.081 8.23l.121.806.806-.136z" fill="#fff"/><path d="M52.625 73.224A233.326 233.326 0 0062.693 57.95l2.62-4.448-.122-.805-.806.135a238.233 238.233 0 01-9.72 15.471 251.938 251.938 0 01-2.967 4.25l.927.67zm3.312-1.328a392.502 392.502 0 017.865-12.723l2.313-3.546-.929-.67a407.5 407.5 0 00-8.008 12.632l-2.18 3.643.939.664zm3.24-1.776c2.148-3.717 4.31-7.446 6.479-11.172l-.139-.797-.788.127c-2.164 3.724-4.326 7.454-6.49 11.178l.132.8.806-.136z" fill="#fff"/><path d="M49.68 72.11l-.421 1.12.914.642a31.542 31.542 0 005.222-7.446l-.335-.75-.744.33A29.234 29.234 0 0149.445 73l.896.643.4-1.125-1.062-.407z" fill="#fff"/><path d="M48.904 72.832a23.299 23.299 0 004.115-5.681l-.327-.734-.746.332a20.71 20.71 0 01-3.777 5.193l-.078.812.813.078z" fill="#fff"/><path d="M47.666 72.288a26.478 26.478 0 004.084-5.492l-.125-.81-.804.14a25.832 25.832 0 01-3.885 5.282l-.083.802.813.078zm-1.049-1.214c1.023-1.457 2.062-2.92 3.087-4.371l-.933-.668c-1.03 1.454-2.06 2.913-3.092 4.374l.938.665zm-.892-1.26l1.345-2.27-.939-.665-1.333 2.265.927.67zm.935-22.961l1.381-2.949-1.076-.414-1.358 2.952 1.054.41z" fill="#fff"/><path d="M46.622 44.37l.634-1.614.078-.813-.813-.078-1.033 2.388.5.623.634-.505zm1.352 3.78l.624-2.017-.938-.665-.826 2.553.5.637.64-.508zm.366 2.738l1.805-2.786-.938-.664-1.804 2.785.938.665zm1.676 1.182l.457-1.226-.327-.734-.734.327-.475 1.213.335.75.744-.33zm2.897 6.816l.359-1.107.072-.81-.807-.067-.744 2.158 1.12-.174zm.412 1.786l1.032-1.454-.922-.672-1.03 1.453.92.673zm1.265 1.751l.905-1.736-.335-.75-.734.326-.89 1.75.326.734.727-.324zm1.079 1.407l.573-.944.078-.813-.812-.078-.981 1.702 1.142.134zm.48 2.362l1.023-1.47-.92-.672-1.024 1.47.92.672zm3.609 6.165l1.276-2.53-1.142-.134-.868 1.774.734.89z" fill="#fff"/></svg>