<svg width="16" height="17" viewBox="0 0 16 17" fill="none" xmlns="http://www.w3.org/2000/svg">
<g clip-path="url(#clip0_87_1400)">
<path d="M4.66634 9.8335C3.97249 10.2252 3.41144 10.8152 3.05511 11.5279C2.69877 12.2405 2.5634 13.0434 2.66634 13.8335C3.45644 13.9364 4.25929 13.8011 4.97195 13.4447C5.68462 13.0884 6.27462 12.5273 6.66634 11.8335" fill="#C2A970"/>
<path d="M2.66699 9.1665C3.85572 9.30778 4.96236 9.84486 5.80883 10.6913C6.6553 11.5378 7.19239 12.6444 7.33366 13.8332C7.92294 13.4934 8.41585 13.0091 8.76581 12.4258C9.11577 11.8425 9.31121 11.1797 9.33366 10.4998C10.4531 10.106 11.4306 9.38917 12.1426 8.43985C12.8545 7.49052 13.2691 6.3514 13.3337 5.1665C13.3337 4.63607 13.1229 4.12736 12.7479 3.75229C12.3728 3.37722 11.8641 3.1665 11.3337 3.1665C10.1488 3.23111 9.00964 3.64561 8.06032 4.3576C7.111 5.0696 6.39412 6.0471 6.00033 7.1665C5.3205 7.18895 4.65763 7.3844 4.07437 7.73435C3.49111 8.08431 3.00672 8.57722 2.66699 9.1665Z" fill="#C2A970" stroke="#C2A970" stroke-linecap="round" stroke-linejoin="round"/>
<path d="M9.33301 6.50016C9.33301 6.67697 9.40325 6.84654 9.52827 6.97157C9.65329 7.09659 9.82286 7.16683 9.99967 7.16683C10.1765 7.16683 10.3461 7.09659 10.4711 6.97157C10.5961 6.84654 10.6663 6.67697 10.6663 6.50016C10.6663 6.32335 10.5961 6.15378 10.4711 6.02876C10.3461 5.90373 10.1765 5.8335 9.99967 5.8335C9.82286 5.8335 9.65329 5.90373 9.52827 6.02876C9.40325 6.15378 9.33301 6.32335 9.33301 6.50016Z" stroke="white" stroke-width="1.5" stroke-linecap="round" stroke-linejoin="round"/>
</g>
<defs>
<clipPath id="clip0_87_1400">
<rect width="16" height="16" fill="white" transform="translate(0 0.5)"/>
</clipPath>
</defs>
</svg>
