<svg width="20" height="20" fill="none" xmlns="http://www.w3.org/2000/svg"><circle cx="10" cy="10" fill="#26A17B" r="10"/><path d="M11.104 10.845v-.001c-.07.005-.431.026-1.235.026-.643 0-1.094-.018-1.254-.026v.002c-2.473-.108-4.318-.531-4.318-1.04 0-.506 1.846-.931 4.318-1.038v1.656c.161.011.625.038 1.265.038.768 0 1.153-.032 1.224-.038V8.769c2.469.11 4.308.532 4.308 1.04 0 .506-1.841.929-4.308 1.038v-.002zm0-2.247V7.116h3.444V4.857H5.173v2.26h3.444v1.48c-2.8.127-4.903.672-4.903 1.327 0 .654 2.105 1.199 4.903 1.327V16h2.489v-4.749C13.9 11.124 16 10.58 16 9.925c0-.652-2.1-1.2-4.894-1.326" fill="#fff"/></svg>