<svg width="22" height="20" fill="none" xmlns="http://www.w3.org/2000/svg"><g clip-path="url(#clip0_32_21325)"><path d="M21.448 14.053v-.013c-.002-.02-.002-.042-.005-.064l-.001-.051c-.004-.023-.004-.049-.006-.068l-.006-.094c-.006-.029-.007-.062-.01-.09-.005-.033-.007-.066-.011-.097l-.025-.18a5.196 5.196 0 00-.047-.253 3.287 3.287 0 00-.048-.219 1.085 1.085 0 00-.027-.108 2.85 2.85 0 00-.062-.216 4.022 4.022 0 00-.08-.241l-.028-.08-.029-.076c-.007-.02-.015-.037-.023-.056-.01-.023-.017-.046-.027-.07-.016-.037-.033-.071-.046-.108-.004-.002-.004-.005-.004-.006l-.043-.095c-.004-.004-.004-.01-.005-.011l-.002-.004-.039-.079c0-.004-.004-.007-.005-.011l-.014-.03-.038-.075a.011.011 0 00-.004-.007c-.031-.06-.064-.12-.097-.18-.004-.006-.006-.013-.012-.02l-.051-.093a.042.042 0 00-.008-.013c-.494-.826-1.37-1.783-2.315-2.096l-.01.023a4.265 4.265 0 00-.51-2.782l-2.038-3.595a2.607 2.607 0 00-.075-.131c-.004-.002-.006-.008-.007-.012-.012-.021-.026-.04-.039-.06 0-.006-.006-.01-.007-.016l-.046-.07-.039-.063-.031-.043-.06-.087c-.012-.016-.021-.031-.033-.046-.011-.016-.025-.033-.034-.049-.005-.001-.006-.007-.01-.011a2.238 2.238 0 00-.035-.046c-.017-.025-.038-.05-.056-.076l-.088-.108c-.033-.039-.066-.081-.1-.117a4.555 4.555 0 00-.318-.335l-.004-.004a3.298 3.298 0 00-.165-.154c0-.004-.002-.004-.005-.004l-.084-.077-.083-.07-.007-.006-.03-.023c-.036-.027-.07-.058-.108-.087a.612.612 0 01-.058-.044l-.006-.004a1.645 1.645 0 00-.064-.049 2.799 2.799 0 01-.084-.06l-.006-.004-.021-.016-.006-.005a1.887 1.887 0 00-.091-.06l-.07-.045c-.013-.01-.029-.018-.04-.026h-.002a.847.847 0 00-.073-.046c-.026-.015-.05-.033-.077-.046l-.013-.01c-.054-.032-.109-.061-.162-.092a7.593 7.593 0 00-.163-.083c-.028-.016-.058-.03-.084-.043a4.479 4.479 0 00-.256-.116 1.005 1.005 0 01-.083-.037.638.638 0 01-.087-.033c-.025-.007-.048-.017-.071-.025-.01-.006-.023-.007-.031-.013-.026-.008-.049-.017-.073-.026a4.107 4.107 0 00-.265-.084 1.093 1.093 0 00-.11-.033l-.011-.002-.083-.023-.004-.001-.064-.016-.182-.04C11.94.112 11.91.108 11.88.1c-.007-.002-.017-.005-.027-.005a2.236 2.236 0 00-.162-.028l-.093-.016L11.41.03a1.638 1.638 0 01-.095-.007 1.826 1.826 0 00-.094-.008L11.132.01c-.004-.002-.007-.002-.011-.002l-.049-.002c-.04-.001-.079-.001-.117-.004L10.839 0h-.145a2.85 2.85 0 00-.142.004 5.73 5.73 0 00-.292.021c-.033.002-.064.006-.097.01s-.066.006-.098.011a5.495 5.495 0 00-.19.027h-.003a4.815 4.815 0 00-.238.045A36.79 36.79 0 019.4.169a.886.886 0 01-.093.028 1.3 1.3 0 00-.093.025l-.079.023c-.037.012-.07.021-.104.033-.025.007-.048.017-.071.023-.018.007-.068.023-.07.027a1.389 1.389 0 00-.114.039 1.82 1.82 0 00-.137.054l-.085.037a1.258 1.258 0 00-.085.037l-.087.038c-.021.01-.042.022-.067.033-.011.006-.021.01-.031.017a.31.31 0 00-.068.032l-.114.06c-.044.022-.087.048-.129.07 0 0-.07.038-.127.074-.033.021-.067.04-.1.062-.004.001-.007.005-.012.007-.017.011-.036.023-.054.037-.015.007-.028.017-.042.027l-.059.039c-.025.015-.05.034-.077.054a.744.744 0 00-.073.052.727.727 0 00-.079.058c-.048.037-.097.073-.143.112a4.169 4.169 0 00-.197.164c-.058.05-.11.1-.164.15l-.081.079a5.774 5.774 0 00-.156.162c-.02.02-.039.042-.056.061l-.114.128c-.016.02-.035.042-.05.064-.02.02-.037.042-.055.064-.013.017-.025.03-.037.048l-.046.058-.071.095-.002.006a1.788 1.788 0 00-.061.082l-.008.014-.05.073c-.004.004-.005.01-.007.013a.16.16 0 00-.02.025l-.05.077a3.999 3.999 0 00-.108.176l-.012.016.002.001-.054.093-.01.012c-.47.841-.86 2.079-.659 3.054h.023A4.288 4.288 0 003.007 7.81l-2.09 3.563c-.022.039-.045.077-.066.117l-.01.014a.05.05 0 01-.006.011c-.013.021-.021.04-.033.064l-.01.016-.038.073-.033.067a.301.301 0 00-.023.046l-.046.095a.458.458 0 01-.022.051c-.01.018-.017.037-.025.055a.188.188 0 01-.006.013c-.007.02-.015.037-.023.056-.013.027-.023.055-.037.087a5.406 5.406 0 00-.174.496c-.021.073-.038.144-.06.218l-.001.006c-.02.075-.035.147-.05.22v.007a1.05 1.05 0 00-.023.11 1.941 1.941 0 00-.02.11l-.002.008-.006.037c-.005.044-.013.09-.02.137-.005.023-.007.048-.01.071v.008a1.227 1.227 0 00-.01.08c-.002.034-.008.068-.01.101 0 .002 0 .006-.002.008v.027c-.002.001 0 .004-.002.007a.05.05 0 01-.004.023c0 .029-.004.056-.004.085-.002.027-.004.054-.004.082l-.004.049v.002c-.002.027-.002.058-.002.087l-.001.088c0 .006 0 .013-.002.02 0 .062 0 .123.002.183.001.062.005.122.007.183l.006.095.017.185.01.093c.004.031.007.06.013.093.004.029.007.06.013.091.004.025.007.048.012.071l.005.037.016.076c.01.064.023.13.039.193l.017.077.029.112.001.013c.008.025.013.054.023.081v.008c.008.02.013.038.02.06.017.061.037.12.054.177.01.027.019.056.031.085.002.01.006.017.008.025.017.054.037.104.06.156a2.366 2.366 0 00.106.261c.011.031.025.06.038.087.012.029.026.058.04.087l.039.079a.034.034 0 01.006.01l.02.038.001.005c.017.037.037.07.056.104.02.034.037.067.054.1l.002.004c.025.04.048.083.073.122a5.194 5.194 0 00.239.364c.017.027.037.054.056.082l.057.077.117.15c.002 0 .002.002.005.002.05.064.102.125.156.183.051.061.108.12.164.177l.067.067.07.068a.7.7 0 00.062.058c.023.026.05.049.077.073l.057.05c.013.013.029.026.045.039 0 .002.001.004.004.002.001.004.005.005.007.007.031.027.062.054.095.077.001.006.007.01.013.012.032.028.065.054.098.08l.073.057c.026.017.05.037.076.056.025.017.05.037.075.051.022.016.04.031.062.045l.031.02.062.04c.037.023.071.048.108.07l.127.077a3.313 3.313 0 00.232.128l.011.006c.018.01.04.02.059.029.013.01.029.015.046.023l.061.031a.633.633 0 00.083.039l.085.04.089.037a4.096 4.096 0 00.41.157c.07.025.142.046.212.067l.11.031c.071.02.145.037.218.054l.082.018.164.034h.002c.025.004.054.01.08.013.028.006.057.01.084.014.02.001.038.005.06.007l.075.011c.037.005.078.01.116.013a3.015 3.015 0 01.228.02l.032.001c.028.002.055.004.084.004.002.002.004.002.008.002.07.002.137.006.204.006h.145c.959-.014 2.227-.294 2.973-.956l-.013-.02a4.28 4.28 0 002.66.95l4.132.031h.166c.023 0 .046-.004.07-.004.006 0 .012 0 .017.002.029-.004.056-.004.085-.004l.073-.006a.393.393 0 00.054-.004c.035-.004.07-.004.104-.008l.056-.005.06-.006c.004-.002.008-.002.013-.002.022-.001.039-.005.06-.005a1.08 1.08 0 01.093-.014c.046-.007.09-.013.136-.022.051-.008.105-.018.156-.028.075-.015.152-.03.225-.05.076-.015.145-.037.219-.056l.007-.001a5.38 5.38 0 00.216-.066l.004-.002a1.87 1.87 0 00.11-.037c.033-.011.068-.025.103-.038.004 0 .006 0 .01-.002.01-.001.021-.007.031-.011.046-.02.089-.035.131-.052a.585.585 0 01.068-.027l.005-.004c.026-.01.05-.02.076-.033l.093-.04c.004 0 .004-.002.007-.002a.112.112 0 01.023-.013c.004 0 .006-.002.008-.004a.085.085 0 00.021-.01l.077-.037c.023-.013.05-.025.073-.037.016-.006.029-.015.043-.023h.002a1.9 1.9 0 00.077-.043l.077-.04c.006-.006.011-.006.016-.01.054-.03.108-.064.161-.094l.153-.097c.027-.017.054-.037.079-.054.05-.035.102-.07.15-.106l.076-.056c.025-.02.05-.037.073-.056a.807.807 0 00.073-.058.64.64 0 00.056-.049.126.126 0 00.028-.02c.022-.017.04-.034.06-.051.049-.043.097-.085.145-.13a.54.54 0 00.06-.056c.027-.025.054-.054.083-.078l.007-.01.062-.06.004-.006c.013-.015.029-.029.043-.044a6.75 6.75 0 00.187-.203l.017-.023c.037-.04.072-.083.106-.127.02-.023.039-.049.058-.073a3.54 3.54 0 00.222-.307.615.615 0 00.05-.071l.033-.05c.023-.035.043-.068.061-.1.023-.033.04-.066.06-.099l.002-.004c.026-.04.049-.081.072-.122l.067-.125c.044-.087.087-.176.13-.265l.048-.111.029-.066c.025-.06.048-.12.071-.18l.002-.004c.027-.076.056-.15.079-.227a4.406 4.406 0 00.12-.416c.01-.025.015-.054.021-.081l.023-.106.016-.073c.004-.02.005-.039.011-.059l-.002-.005c.005-.002.005-.006.005-.012l.02-.12.002-.017c.008-.043.014-.085.02-.126.004-.028.01-.06.012-.092.006-.032.007-.06.011-.093l.01-.09c0-.026.004-.05.004-.076l.004-.037.006-.073c0-.044.004-.085.004-.13.002-.048.004-.098.004-.147v-.148c.005-.033.004-.072.004-.11z" fill="url(#paint0_linear_32_21325)"/><path d="M21.452 14.171v.149c0 .05-.002.098-.004.147 0 .043-.003.086-.004.13l-.006.074c-.002.01-.002.023-.003.035l-.005.076-.01.091a1.127 1.127 0 01-.01.093 1.634 1.634 0 01-.032.219c.002.006-.002.012-.002.018-.006.04-.014.08-.022.12 0 .004 0 .01-.002.01l.001.006-.012.057-.015.075-.023.105a.912.912 0 01-.02.082 1.993 1.993 0 01-.023.094l-.027.091a6.976 6.976 0 01-.149.458l-.003.004c-.023.06-.046.12-.07.178l-.029.066-.05.112a7.792 7.792 0 01-.129.264l-.068.126-.07.122c0 .002 0 .002-.002.003-.02.033-.038.066-.06.098l-.062.1-.034.05a.956.956 0 01-.049.073l-.053.079c-.019.024-.037.05-.056.076a4.247 4.247 0 01-.113.151l-.059.072c-.033.046-.07.088-.105.129-.006.008-.013.014-.019.023a2.28 2.28 0 00-.058.065c-.04.046-.085.091-.128.138l-.044.045-.002.006-.062.06-.008.01c-.029.026-.056.053-.083.079-.019.02-.04.038-.06.056-.047.045-.096.087-.146.13a.904.904 0 01-.058.05c-.008.008-.019.014-.029.022l-.057.047c-.023.02-.048.04-.073.058l-.073.057-.075.056-.151.106a4.938 4.938 0 01-.233.15c-.054.031-.107.064-.162.094l-.014.01a3.541 3.541 0 01-.08.042l-.075.041h-.002c-.015.007-.029.017-.042.023a.807.807 0 00-.075.037c-.026.011-.05.025-.076.037l-.022.01-.007.004a.086.086 0 00-.024.013l-.007.001a3.06 3.06 0 01-.168.075l-.005.003c-.025.008-.046.018-.068.027-.042.018-.087.033-.131.051-.01.004-.022.01-.033.013a.017.017 0 01-.01.002l-.102.038-.109.037-.004.002a5.467 5.467 0 01-.217.065l-.006.003c-.074.018-.145.039-.218.056-.075.018-.15.033-.227.049l-.155.029-.137.022c-.03.005-.062.008-.092.014l-.059.005c-.006 0-.01.002-.014.003l-.06.006a1.253 1.253 0 01-.057.005c-.034.004-.068.006-.104.009-.018.001-.035.004-.053.004l-.074.005a.993.993 0 00-.085.005C15.933 20 15.928 20 15.922 20l-.07.002h-.03c-.045.002-.092.002-.137.002l-4.132-.031a4.27 4.27 0 01-2.662-.95 4.305 4.305 0 01-.993-1.14l-.003-.003-.09-.164-.01-.015-.313-.551-.037-.067-1.593-2.807-.039-.067v-.002l1.674-2.849.038.07.819 1.441.773 1.365 1.202 2.115.002.006.042.074c.25.409.699.68 1.211.684l4.549.033c1.507 0 2.809-1.148 2.901-2.656l.005-.068a3.296 3.296 0 00-1.63-2.988l.002-.002.319-.545c.002-.006.008-.011.01-.018l.096-.161c-.002-.002 0-.002 0-.003.248-.444.413-.928.491-1.429l.01-.023c.945.314 1.822 1.272 2.316 2.097.004.004.006.01.008.014l.052.093c.006.006.006.013.01.018.034.06.067.12.098.18a.902.902 0 01.042.083c.003.01.01.018.013.029.002.004.006.008.007.012a1.676 1.676 0 01.04.083c.002.003.002.007.005.01l.044.096c0 .003 0 .004.002.006l.046.11.029.067c.006.02.015.038.022.058l.03.078.027.078.002.001a3.72 3.72 0 01.08.24c.022.07.043.143.061.217a4.034 4.034 0 01.076.327 3.7 3.7 0 01.046.252c.01.06.018.12.026.18l.01.097c.003.03.005.061.01.09l.007.094.006.069.002.051.004.064v.014l.004.11z" fill="url(#paint1_linear_32_21325)"/><path d="M12.428 8.594v.003l-1.658-.014L9.2 8.57l-2.434-.018h-.089a.791.791 0 00-.076.004l-.052.006-.025.004a1.461 1.461 0 00-.276.063l-.054.02c-.004.002-.01.003-.014.006a1.128 1.128 0 00-.214.107c0 .002-.002.002-.002.002a1.365 1.365 0 00-.282.227c-.077.08-.146.17-.203.27l-2.291 3.9c-.738 1.257-.453 2.887.689 3.757.047.037.098.07.148.105a3.302 3.302 0 003.46.122l.313.552.01.014.09.164.003.002c.261.438.598.823.993 1.142l.014.019c-.744.661-2.012.942-2.973.956h-.124l-.02-.001c-.068 0-.136-.003-.205-.006-.003 0-.006 0-.007-.002-.029 0-.056-.002-.084-.004l-.032-.002-.014-.002a2.683 2.683 0 00-.213-.018l-.118-.014-.074-.01c-.02-.002-.04-.006-.059-.009-.028-.004-.057-.008-.084-.014l-.08-.014h-.002c-.055-.01-.11-.022-.165-.034-.027-.005-.055-.01-.082-.018a3.923 3.923 0 01-.218-.054l-.11-.03c-.07-.022-.141-.044-.212-.068a4.496 4.496 0 01-.41-.155c-.03-.013-.06-.027-.09-.038l-.084-.04a.95.95 0 01-.083-.04c-.022-.009-.042-.02-.062-.029-.017-.008-.031-.014-.046-.023a.773.773 0 00-.058-.028l-.01-.007a4.003 4.003 0 01-.105-.056c-.044-.023-.085-.05-.129-.074l-.126-.076c-.037-.022-.072-.046-.11-.07l-.06-.04c-.011-.008-.021-.013-.03-.021-.022-.014-.041-.03-.063-.044a2.936 2.936 0 01-.15-.11c-.022-.018-.048-.036-.073-.055a2.5 2.5 0 01-.1-.08 1.454 1.454 0 01-.108-.089c-.001-.003-.005-.004-.007-.008a.52.52 0 01-.048-.041 1.174 1.174 0 01-.058-.05c-.026-.024-.054-.047-.078-.072l-.062-.058-.068-.067c-.025-.023-.046-.046-.068-.068a3.417 3.417 0 01-.165-.177 3.89 3.89 0 01-.157-.184c-.002 0-.002-.002-.002-.003l-.119-.15a1.455 1.455 0 00-.057-.077 5.022 5.022 0 01-.223-.324c-.026-.038-.05-.081-.074-.122a2.457 2.457 0 01-.073-.122l-.002-.003-.054-.1a3.11 3.11 0 01-.056-.104l-.003-.006a.546.546 0 00-.024-.048l-.04-.079a2.006 2.006 0 01-.04-.086 2.997 2.997 0 01-.112-.261c-.011-.029-.023-.057-.032-.087a1.76 1.76 0 01-.059-.155l-.008-.026c-.01-.03-.02-.058-.031-.085l-.054-.178-.018-.06c0-.004-.002-.004-.002-.007l-.022-.082-.003-.012-.028-.114a3.538 3.538 0 01-.057-.27c-.007-.024-.01-.05-.015-.074-.002-.013-.006-.025-.006-.037a6.278 6.278 0 01-.013-.073l-.012-.09c-.006-.032-.01-.062-.014-.092l-.01-.093-.018-.185-.006-.095-.008-.183c-.002-.061-.002-.122-.002-.185.002-.006.002-.013.002-.02l.002-.088.002-.087v-.002c.002-.014.002-.03.003-.047l.004-.083c.001-.029.004-.056.006-.085a.098.098 0 00.002-.023c.002-.004 0-.006.002-.008l.001-.027c.002-.002.002-.006.002-.008a1.726 1.726 0 01.02-.181l.001-.007.01-.073.02-.137.006-.037.002-.009.019-.109a2.38 2.38 0 01.023-.11c0-.002 0-.006.002-.007.014-.073.03-.145.05-.22l.001-.007c.02-.072.038-.145.06-.217.022-.074.046-.147.07-.22l.056-.146c.016-.042.031-.086.05-.128l.034-.087a.44.44 0 00.029-.068l.026-.054a250.655 250.655 0 01.067-.147c.009-.017.016-.032.025-.046.011-.023.02-.046.033-.067.014-.025.025-.05.038-.075l.01-.014a.738.738 0 01.033-.063l.006-.012.009-.014.066-.118 2.09-3.563a4.274 4.274 0 012.157-1.828 4.285 4.285 0 011.485-.29h.001l.188.001h.02l.632.005.078.001 3.227.023 1.63 2.87z" fill="url(#paint2_linear_32_21325)"/><path d="M12.427 8.596l-1.63 2.778-.003.003-3.305-.025-1.674 2.85v.001l.039.067 1.592 2.807.038.067a3.302 3.302 0 01-3.609-.227c-1.143-.87-1.428-2.501-.689-3.757l2.291-3.9a1.412 1.412 0 01.485-.497s.002 0 .002-.002a1.071 1.071 0 01.214-.108l.014-.005.054-.02a1.328 1.328 0 01.276-.063l.077-.01a.791.791 0 01.076-.004h.089l2.435.018 1.569.013 1.66.014z" fill="url(#paint4_linear_32_21325)"/><path d="M18.374 8.64a4.4 4.4 0 01-.054.631 4.293 4.293 0 01-.492 1.43v.002l-.095.16c-.002.007-.008.013-.01.019l-.32.545v.002l-.04.066-1.634 2.783-3.305-.025.84-1.43.794-1.353 1.232-2.098.004-.004.042-.074c.228-.42.242-.945-.014-1.391l-2.23-3.934c-.01-.014-.016-.027-.026-.04-.73-1.245-2.276-1.795-3.592-1.236a3.495 3.495 0 00-.114.052c-.01.006-.023.01-.034.016-.006.005-.014.007-.02.011-.048.023-.094.05-.14.075A3.29 3.29 0 008.03 3.91a3.34 3.34 0 00-.54 1.786l-.633-.004c-.006 0-.012-.002-.019 0l-.186-.002H6.65a4.282 4.282 0 00-1.485.29l-.024.002c-.2-.976.19-2.214.657-3.054l.009-.012.054-.093-.002-.002.01-.016c.036-.059.071-.119.11-.176l.05-.076a.364.364 0 01.018-.027c.003-.004.004-.01.008-.014.017-.023.05-.073.05-.073l.009-.013a1.35 1.35 0 01.061-.083l.003-.005.07-.096a.835.835 0 01.046-.058l.037-.048.054-.064c.016-.022.035-.042.051-.064 0 0 .058-.062.114-.126a3.78 3.78 0 01.212-.224l.08-.078a6.339 6.339 0 01.361-.316c.047-.038.096-.075.144-.112.025-.02.052-.04.079-.058.025-.018.05-.037.075-.053.026-.019.05-.038.076-.054L7.635.95a1.034 1.034 0 00.108-.07l.1-.062C7.9.78 7.97.744 7.97.744A2.79 2.79 0 018.1.672l.114-.06A.605.605 0 018.281.58l.031-.016c.025-.01.046-.023.068-.033a1.31 1.31 0 01.086-.038c.03-.014.056-.026.085-.037A1.27 1.27 0 008.637.42a3.132 3.132 0 01.25-.094L8.959.3a.713.713 0 00.07-.023c.034-.012.069-.022.104-.032a.886.886 0 01.08-.023c.03-.01.062-.018.094-.027.03-.008.062-.016.092-.026.078-.019.157-.035.234-.053.08-.017.158-.03.238-.044a5.217 5.217 0 01.194-.029l.097-.01c.033-.004.064-.008.097-.01.097-.01.196-.015.293-.02a2.77 2.77 0 01.143-.005h.142l.003-.001.114.002.118.004.05.003c.002-.002.006 0 .01.001l.089.006c.03.002.064.004.093.008l.095.008.187.023.093.015a2.32 2.32 0 01.19.033c.03.007.059.01.087.018.062.012.123.027.183.041l.062.015c0 .002.002 0 .006.002.027.008.056.014.083.023l.01.001c.037.013.075.022.11.033a3.548 3.548 0 01.337.112c.01.005.023.007.033.013l.07.026a.816.816 0 00.087.033c.029.014.057.025.084.037l.087.037.167.079.086.042a4.94 4.94 0 01.324.175l.014.01c.027.014.051.03.078.046l.074.046h.001l.041.026.07.046.07.047c.008.004.012.01.02.014l.007.006.02.015.007.004.085.06.064.047.006.005.057.045.11.087c.01.006.02.014.028.023l.007.004.084.07.085.077a4.21 4.21 0 01.17.158l.004.005a5.331 5.331 0 01.315.333c.034.038.067.079.101.118.029.035.058.074.087.11l.058.073.035.048a.834.834 0 00.044.06c.012.014.022.03.032.045l.06.087.03.043.04.063c.016.023.03.047.045.07.003.006.007.01.008.015a.433.433 0 01.038.06c.003.003.004.008.007.01.001.005.005.01.008.016.023.037.046.078.068.117l2.04 3.593a4.29 4.29 0 01.562 2.15z" fill="url(#paint5_linear_32_21325)"/><path d="M19.034 14.302l-.003.114-.004.068c-.093 1.508-1.394 2.657-2.902 2.657l-4.548-.033a1.432 1.432 0 01-1.212-.685l-.042-.074c-.001 0-.002-.002-.002-.006L9.12 14.228l-.774-1.364-.818-1.442-.038-.07 3.305.025-.002.002.038.066.002.002.001.004 1.592 2.802 3.305.024 1.633-2.782.04-.067a3.298 3.298 0 011.63 2.874z" fill="url(#paint6_linear_32_21325)"/><path d="M15.337 9.293l-.042.074-.004.004-1.233 2.098-.794 1.353-.839 1.43-1.591-2.801-.002-.005-.002-.001-.037-.067.004-.004 1.63-2.778v-.002l-1.63-2.873-3.227-.023-.08-.002a3.333 3.333 0 01.542-1.786 3.298 3.298 0 011.275-1.139l.02-.01.034-.017.114-.052c1.317-.56 2.862-.01 3.593 1.236.01.014.016.026.025.04l2.23 3.934c.255.445.241.971.014 1.39z" fill="url(#paint7_linear_32_21325)"/></g><defs><linearGradient id="paint0_linear_32_21325" x1="17.556" y1="3.234" x2="6.132" y2="21.227" gradientUnits="userSpaceOnUse"><stop offset=".031" stop-color="#D495FF"/><stop offset=".321" stop-color="#A671FF"/><stop offset=".703" stop-color="#778BFF"/></linearGradient><linearGradient id="paint1_linear_32_21325" x1="6.926" y1="12.437" x2="20.748" y2="16.317" gradientUnits="userSpaceOnUse"><stop stop-color="#717EFE"/><stop offset=".986" stop-color="#4F91FF"/></linearGradient><linearGradient id="paint2_linear_32_21325" x1="1.846" y1="17.733" x2="11.682" y2="7.243" gradientUnits="userSpaceOnUse"><stop stop-color="#78CCFF"/><stop offset=".956" stop-color="#508CFD"/></linearGradient><linearGradient id="paint3_linear_32_21325" x1="6.024" y1="8.674" x2="6.143" y2="8.731" gradientUnits="userSpaceOnUse"><stop offset=".022" stop-color="#5553FD"/><stop offset=".591" stop-color="#A9A6FD"/></linearGradient><linearGradient id="paint4_linear_32_21325" x1="4.945" y1="17.286" x2="10.266" y2="5.331" gradientUnits="userSpaceOnUse"><stop offset=".004" stop-color="#fff"/><stop offset=".17" stop-color="#E7EDFF"/><stop offset=".518" stop-color="#A9C1FE"/><stop offset=".719" stop-color="#82A5FE"/></linearGradient><linearGradient id="paint5_linear_32_21325" x1="8.766" y1="-.746" x2="14.88" y2="14.866" gradientUnits="userSpaceOnUse"><stop offset=".017" stop-color="#D69BFD"/><stop offset=".973" stop-color="#7E5CF7"/></linearGradient><linearGradient id="paint6_linear_32_21325" x1="9.018" y1="11.938" x2="20.741" y2="17.067" gradientUnits="userSpaceOnUse"><stop stop-color="#98A9F4"/><stop offset=".777" stop-color="#fff"/></linearGradient><linearGradient id="paint7_linear_32_21325" x1="12.044" y1="14.359" x2="11.164" y2="2.637" gradientUnits="userSpaceOnUse"><stop offset=".074" stop-color="#A187FE"/><stop offset="1" stop-color="#fff"/></linearGradient><clipPath id="clip0_32_21325"><path fill="#fff" d="M0 0h21.452v20H0z"/></clipPath></defs></svg>