<svg width="25" height="24" fill="none" xmlns="http://www.w3.org/2000/svg"><g clip-path="url(#clip0_32_31750)"><path fill-rule="evenodd" clip-rule="evenodd" d="M12.51 2.011a3.2 3.2 0 012.112.797l.154.145.698.698c.192.19.442.31.71.341L16.32 4h1a3.2 3.2 0 013.195 3.018l.005.182v1c0 .27.092.533.258.743l.09.1.697.698a3.2 3.2 0 01.147 4.382l-.145.154-.698.698a1.2 1.2 0 00-.34.71l-.009.135v1a3.2 3.2 0 01-3.018 3.195l-.182.005h-1a1.2 1.2 0 00-.743.258l-.1.09-.698.697a3.2 3.2 0 01-4.382.147l-.154-.145-.698-.698a1.2 1.2 0 00-.71-.341L8.7 20.02h-1a3.2 3.2 0 01-3.195-3.018L4.5 16.82v-1a1.2 1.2 0 00-.258-.743l-.09-.1-.697-.698a3.2 3.2 0 01-.147-4.382l.145-.154.698-.698a1.2 1.2 0 00.341-.71L4.5 8.2v-1l.005-.182a3.2 3.2 0 013.013-3.013L7.7 4h1a1.2 1.2 0 00.743-.258l.1-.09.698-.697a3.2 3.2 0 012.27-.944zM12.5 7.14a1.5 1.5 0 011.5 1.5v3.74a1.5 1.5 0 01-1.079 1.439A1.5 1.5 0 0114 15.259v.01a1.5 1.5 0 01-3 0v-.01a1.5 1.5 0 011.078-1.44A1.5 1.5 0 0111 12.379V8.64a1.5 1.5 0 011.5-1.5z" fill="#fff"/></g><defs><clipPath id="clip0_32_31750"><path fill="#fff" transform="translate(.5)" d="M0 0h24v24H0z"/></clipPath></defs></svg>