<svg width="48" height="48" fill="none" xmlns="http://www.w3.org/2000/svg"><rect width="48" height="48" rx="8" fill="#26A17B"/><g clip-path="url(#clip0_0_17224)" stroke="#fff" stroke-width="1.5" stroke-linecap="round" stroke-linejoin="round"><path d="M13.5 20.5a1.166 1.166 0 011.167-1.167h18.666A1.167 1.167 0 0134.5 20.5v2.333A1.167 1.167 0 0133.333 24H14.667a1.167 1.167 0 01-1.167-1.167V20.5zM24 19.333V34.5"/><path d="M32.167 24v8.167a2.333 2.333 0 01-2.334 2.333H18.168a2.333 2.333 0 01-2.334-2.333V24m2.916-4.667a2.917 2.917 0 110-5.833c1.126-.02 2.229.527 3.165 1.567.937 1.04 1.663 2.527 2.085 4.266.422-1.739 1.149-3.225 2.085-4.266.937-1.04 2.04-1.587 3.165-1.567a2.917 2.917 0 010 5.833"/></g><defs><clipPath id="clip0_0_17224"><path fill="#fff" transform="translate(10 10)" d="M0 0h28v28H0z"/></clipPath></defs></svg>