<svg width="48" height="48" fill="none" xmlns="http://www.w3.org/2000/svg"><rect width="48" height="48" rx="8" fill="#C2A970"/><mask id="a" style="mask-type:alpha" maskUnits="userSpaceOnUse" x="0" y="0" width="48" height="48"><rect width="48" height="48" rx="8" fill="#487BFF"/></mask><g mask="url(#a)" fill="#fff"><path opacity=".2" d="M39.063-8.407l-7.785 20.8L48.16-2.037 34.33 15.34l20.515-8.506L36.32 19.086l22.14-1.75-21.403 5.928 21.597 5.177-22.187-.976 18.94 11.597-20.8-7.784 14.43 16.882L31.66 34.33l8.505 20.515L27.916 36.32l1.75 22.14-5.928-21.403-5.177 21.597.976-22.188-11.598 18.94 7.785-20.8-16.883 14.43L12.67 31.66l-20.515 8.505 18.523-12.251-22.14 1.75 21.404-5.928-21.597-5.177 22.187.976-18.94-11.598 20.8 7.785L-2.037-1.16 15.34 12.67 6.834-7.844 19.086 10.68l-1.75-22.14 5.928 21.403 5.177-21.596-.976 22.187 11.598-18.94z"/><path opacity=".2" d="M45.276 8.164L33.131 19.517l16.324-3.153-15.296 6.514 16.417 2.62-16.6.89 14.53 8.078-15.904-4.841 10.891 12.56-13.289-9.99 5.94 15.529-9.072-13.932.27 16.622-3.76-16.194-5.43 15.713 2.005-16.504L9.68 46.337l7.53-14.822L2.95 40.06l12.145-11.353L-1.23 31.86l15.296-6.514-16.417-2.621 16.6-.89-14.53-8.077 15.904 4.841L4.732 6.039l13.289 9.99L12.08.5l9.072 13.932-.27-16.623 3.76 16.195 5.43-15.713-2.006 16.503L38.545 1.887l-7.53 14.822 14.261-8.545z"/></g><g clip-path="url(#clip0_87_6218)"><path d="M22.833 26.333v9.334h-4.667a3.5 3.5 0 01-3.5-3.5V27.5a1.167 1.167 0 011.167-1.167h7zm9.333 0a1.167 1.167 0 011.167 1.167v4.666a3.5 3.5 0 01-3.5 3.5h-4.667v-9.333h7zm-2.916-14a4.083 4.083 0 013.69 5.833h.393a2.333 2.333 0 012.333 2.334v1.166A2.333 2.333 0 0133.333 24h-8.167v-5.834h-2.333V24h-8.167a2.334 2.334 0 01-2.333-2.334V20.5a2.333 2.333 0 012.333-2.334h.393a4.068 4.068 0 01-.393-1.75c0-2.255 1.828-4.083 4.064-4.083 2.047-.035 3.864 1.274 5.111 3.423l.159.284c1.205-2.233 2.986-3.633 5.006-3.704l.244-.003zm-10.5 2.333a1.75 1.75 0 100 3.5h3.666c-.864-2.222-2.273-3.523-3.666-3.5zm10.48 0c-1.377-.023-2.783 1.28-3.647 3.5h3.667a1.75 1.75 0 10-.02-3.5z" fill="#fff"/></g><defs><clipPath id="clip0_87_6218"><path fill="#fff" transform="translate(10 10)" d="M0 0h28v28H0z"/></clipPath></defs></svg>