<svg width="138" height="144" fill="none" xmlns="http://www.w3.org/2000/svg"><path d="M77.208 38.683c-3.605 1.995-5.356 4.056-7.184 8.323-1.737 4.181-1.248 5.347 2.268 5.912 2.198.342 2.831-.078 4.345-2.942 1.329-2.605 2.148-3.283 3.64-2.966 3.25.556 2.615 3.538-2.307 10.349-4.73 6.375-6.998 13.102-5.294 14.929 1.278 1.37 5.562.194 5.626-1.66.065-1.854 3.784-7.115 7.905-11.214 6.133-6.06 7.456-11.053 4.46-16.372-3.17-5.414-8.499-7.19-13.459-4.359zm10.212 3.715c1.877 1.922 2.36 3.265 2.265 6.001-.111 3.178-.864 4.478-6.01 10.131-3.22 3.6-6.287 7.912-6.96 9.48-.778 2.005-1.329 2.605-2.01 1.874-1.193-1.28 1.86-7.713 5.73-12.262 3.406-3.859 4.777-7.7 3.902-10.47-1.441-4.293-6.583-3.854-9.31.824-.94 1.646-1.961 3.025-2.314 3.012-1.412-.049-1.451-1.464-.114-4.334 3.072-6.964 10.214-9.013 14.82-4.256zM72.5 77.23c-1.005.938-.885 5.096.222 6.284.597.64 1.817 1.124 2.877 1.16 1.059.038 2.31-.36 2.95-.957.64-.596 1.124-1.817 1.16-2.876.038-1.06-.36-2.31-.957-2.95-1.107-1.188-5.247-1.597-6.252-.66zm4.577 3.077c-.034.971-.68 1.744-1.386 1.72-.706-.025-1.296-.841-1.262-1.812.034-.971.68-1.744 1.385-1.72.707.025 1.297.841 1.263 1.812z" fill="#C2A970"/><path d="M45.04 142.006c-.76-.603-1.018-8.522-.557-17.667.692-14.048.437-16.674-1.353-17.451-4.632-1.982-8.934-5.618-11.447-9.8-3.973-6.612-8.145-19.723-8.207-25.774-.102-6.557 3.842-15.412 9.889-22.09 8.808-9.792 49.867-31.55 65.255-34.576 8.112-1.698 14.203-.593 20.646 3.742 5.217 3.615 6.502 5.093 12.812 15.596 6.72 11.183 7.032 11.922 7.25 18.674.673 17.86-10.275 28.277-43.46 41.334l-16.747 6.489-15.728 20.965c-8.729 11.465-16.077 21.043-16.369 21.218-.389.234-1.226-.058-1.985-.66zm11.74-16.585c4.608-6.209 11.12-14.755 14.542-19.193l6.143-8.06 14.725-5.67c17.935-6.938 33.961-16.17 38.724-22.342 8.846-11.27 6.988-26.699-4.948-40.836-11.722-14.001-17.579-15.379-36.954-8.635-9.512 3.333-14.997 6.1-31.49 15.877-17.66 10.48-20.46 12.427-23.98 16.923-9.603 11.992-9.284 24.638 1.175 42.045 3.565 5.932 4.44 6.73 8.76 7.972l4.75 1.515-.77 15.021c-.75 13.289-.63 17.453.536 16.752.195-.117 4.122-5.256 8.788-11.369z" fill="#C2A970"/><path d="M53.257 121.979c-.584-.972 12.03-22.052 13.78-23.103 3.015-1.812 1.539 2.119-4.623 11.91-6.744 10.803-8.28 12.652-9.157 11.193zm32.027-29.964c-10.135 3.84-12.839 4.405-12.412 2.693.33-1.654 24.217-10.58 25.463-9.608 1.362 1.166.137 1.77-13.051 6.915zm26.828-64.827c-5.547-3.284-10.295-3.476-17.823-.805-7.625 2.728-11.303 1.232-4.048-1.671 9.278-3.722 17.022-3.61 23.27.18 6.093 3.75 4.79 5.99-1.399 2.296zm-37.978 5.084c-.74-.35-1.187-.875-1.207-1.128.272-1.09 6.205-2.67 6.672-1.892.76 1.265-3.927 3.816-5.465 3.02z" fill="#C2A970"/></svg>