<svg width="208" height="213" fill="none" xmlns="http://www.w3.org/2000/svg"><path clip-rule="evenodd" d="M11.892 203.208c-8.37-5.861-10.405-17.397-4.545-25.769l38.278-55.336c5.861-8.371 17.398-10.406 25.769-4.544l2.99 2.094c8.37 5.861 10.406 17.397 4.546 25.767l-38.28 55.337c-5.861 8.37-17.397 10.404-25.769 4.544l-2.99-2.093z" stroke="#06BAB5" stroke-width="7" stroke-miterlimit="3.864"/><path d="M27.64 148.023s.808 7.183 12.698 15.314c11.89 8.133 19.073 8.133 20.783 8.133m106.867-.925s1.45-29.736-29.437-29.736-27.645 31.186-26.408 34.515c1.236 3.328 9.641 17.449 18.345 20.136 0 0-12.629 1.835-13.226 7.807-.597 5.973 12.927 5.376 12.927 5.376h36.006s19.796-4.181 28.797-19.199c9.001-15.017 9.001-33.32 8.702-42.918-.299-9.599-7.19-31.656-22.761-46.971-5.526-6.322-13.943.667-8.709 6.091 0 0 15.505 17.832 16.265 35.573.76 17.741-6.992 29.298-6.992 29.298s.145-28.773-15.359-45.799c-15.505-17.027-30.819-27.015-40.662-44.992-9.845-17.976-14.173-24.254-13.982-31.626.189-7.371 1.095-29.488-14.22-38.95-15.314-9.465-31.96-4.375-39.712 3.186-7.752 7.562-12.126 15.17-12.126 15.17l-25.539 9.8s-2.236 10.414 5.135 20.258c7.372 9.844 36.099 9.083 36.099 9.083v37.286" stroke="#06BAB5" stroke-width="7" stroke-miterlimit="3.864"/><path d="M80.812 208.561c12.91 0 23.374-10.465 23.374-23.374 0-12.909-10.465-23.375-23.374-23.375-12.91 0-23.374 10.466-23.374 23.375s10.465 23.374 23.374 23.374z" stroke="#06BAB5" stroke-width="7" stroke-miterlimit="3.864"/></svg>