<svg width="56" height="56" fill="none" xmlns="http://www.w3.org/2000/svg"><g clip-path="url(#clip0_87_3337)"><path d="M28.024 4.692a7.47 7.47 0 014.93 1.86l.36.338 1.628 1.63a2.8 2.8 0 001.657.795l.315.018h2.333a7.467 7.467 0 017.455 7.042l.012.425v2.333a2.8 2.8 0 00.602 1.734l.21.233 1.626 1.63a7.466 7.466 0 01.343 10.224l-.338.36-1.629 1.628a2.8 2.8 0 00-.796 1.656l-.018.315v2.334a7.467 7.467 0 01-7.042 7.455l-.425.011h-2.333a2.8 2.8 0 00-1.734.602l-.233.21-1.629 1.627a7.467 7.467 0 01-10.225.343l-.359-.339-1.629-1.628a2.8 2.8 0 00-1.656-.796l-.315-.019H16.8a7.466 7.466 0 01-7.455-7.042l-.011-.424v-2.334a2.8 2.8 0 00-.602-1.733l-.21-.234-1.627-1.628a7.467 7.467 0 01-.343-10.225l.339-.36 1.628-1.628a2.8 2.8 0 00.796-1.657l.019-.315V16.8l.011-.425a7.467 7.467 0 017.03-7.03l.425-.012h2.334a2.8 2.8 0 001.733-.602l.234-.21 1.628-1.626a7.467 7.467 0 015.295-2.203zm8.626 16.992a2.334 2.334 0 00-3.3 0l-7.683 7.681-3.017-3.015-.22-.193a2.333 2.333 0 00-3.08 3.493l4.667 4.666.22.194a2.334 2.334 0 003.08-.194l9.333-9.333.194-.22a2.333 2.333 0 00-.194-3.08z" fill="#26A17B"/></g><defs><clipPath id="clip0_87_3337"><path fill="#fff" d="M0 0h56v56H0z"/></clipPath></defs></svg>