<svg width="44" height="44" fill="none" xmlns="http://www.w3.org/2000/svg"><g clip-path="url(#clip0_87_3535)" stroke="#1E1E1E" stroke-width="1.5" stroke-linecap="round" stroke-linejoin="round"><path d="M7.333 38.5c2.103-7.37 3.636-14.716 3.667-22h11c.03 7.284 1.564 14.63 3.666 22"/><path d="M22.917 23.834h8.25c.046 4.788 1.639 9.709 3.667 14.666M16.5 9.167a4.4 4.4 0 013.667-1.834 4.4 4.4 0 013.666 1.834A4.4 4.4 0 0027.5 11a4.4 4.4 0 003.667-1.833 4.4 4.4 0 013.666-1.834A4.4 4.4 0 0138.5 9.167M5.5 38.5h34.833"/></g><defs><clipPath id="clip0_87_3535"><path fill="#fff" d="M0 0h44v44H0z"/></clipPath></defs></svg>