<svg width="24" height="24" fill="none" xmlns="http://www.w3.org/2000/svg"><g clip-path="url(#clip0_87_2823)" stroke="#1E1E1E" stroke-width="1.5" stroke-linecap="round" stroke-linejoin="round"><path d="M2 20a2.4 2.4 0 002 1 2.4 2.4 0 002-1 2.4 2.4 0 012-1 2.401 2.401 0 012 1 2.4 2.4 0 002 1 2.4 2.4 0 002-1 2.4 2.4 0 012-1 2.401 2.401 0 012 1 2.4 2.4 0 002 1 2.4 2.4 0 002-1M4 18l-1-5h18l-2 4M5 13V7h8l4 6M7 7V3H6"/></g><defs><clipPath id="clip0_87_2823"><path fill="#fff" d="M0 0h24v24H0z"/></clipPath></defs></svg>