<svg width="24" height="24" fill="none" xmlns="http://www.w3.org/2000/svg"><circle cx="12" cy="12" fill="#26A17B" r="10"/><path d="M13.104 12.845v-.001c-.07.005-.431.026-1.235.026-.643 0-1.095-.018-1.254-.026v.002c-2.473-.108-4.318-.531-4.318-1.04 0-.506 1.846-.931 4.318-1.038v1.656c.161.011.625.038 1.265.038.768 0 1.153-.032 1.224-.038v-1.655c2.469.11 4.308.533 4.308 1.04 0 .506-1.841.929-4.308 1.038v-.002zm0-2.247V9.116h3.444V6.857H7.173v2.26h3.444v1.48c-2.8.127-4.903.672-4.903 1.327 0 .654 2.105 1.199 4.903 1.327V18h2.489v-4.749C15.9 13.124 18 12.58 18 11.925c0-.652-2.1-1.2-4.894-1.326" fill="#fff"/></svg>