<svg width="44" height="44" fill="none" xmlns="http://www.w3.org/2000/svg"><g clip-path="url(#clip0_8_4010)" stroke="#1E1E1E" stroke-width="2" stroke-linecap="round" stroke-linejoin="round"><path d="M16.5 25.667c0 3.037 4.924 5.5 11 5.5s11-2.463 11-5.5c0-3.038-4.924-5.5-11-5.5s-11 2.462-11 5.5z"/><path d="M16.5 25.667V33c0 3.036 4.924 5.5 11 5.5s11-2.464 11-5.5v-7.333M5.5 11c0 1.965 2.097 3.78 5.5 4.763 3.403.983 7.597.983 11 0 3.403-.983 5.5-2.798 5.5-4.763 0-1.965-2.097-3.78-5.5-4.763-3.403-.983-7.597-.983-11 0C7.597 7.22 5.5 9.035 5.5 11z"/><path d="M5.5 11v18.333c0 1.628 1.415 2.659 3.667 3.667M5.5 20.167c0 1.628 1.415 2.658 3.667 3.666"/></g><defs><clipPath id="clip0_8_4010"><path fill="#fff" d="M0 0h44v44H0z"/></clipPath></defs></svg>