<svg width="32" height="32" fill="none" xmlns="http://www.w3.org/2000/svg"><g clip-path="url(#clip0_32_22223)" stroke="#fff" stroke-width="1.5" stroke-linecap="round" stroke-linejoin="round"><path d="M2.667 26.667A3.2 3.2 0 005.332 28 3.2 3.2 0 008 26.667a3.2 3.2 0 012.666-1.334 3.2 3.2 0 012.667 1.334A3.2 3.2 0 0016 28a3.2 3.2 0 002.666-1.333 3.2 3.2 0 012.667-1.334A3.2 3.2 0 0124 26.667 3.201 3.201 0 0026.666 28a3.2 3.2 0 002.667-1.333M5.333 24L4 17.333h24l-2.667 5.334M6.667 17.333v-8h10.666l5.334 8"/><path d="M9.333 9.333V4H8"/></g><defs><clipPath id="clip0_32_22223"><path fill="#fff" d="M0 0h32v32H0z"/></clipPath></defs></svg>