<svg width="32" height="32" fill="none" xmlns="http://www.w3.org/2000/svg"><g clip-path="url(#clip0_32_22673)" stroke-linecap="round" stroke-linejoin="round"><path d="M20 14.667v.013" stroke="#2C3E50" stroke-width="2.75"/><path d="M21.334 4v5.07a8.025 8.025 0 013.544 4.263h1.788a1.333 1.333 0 011.333 1.334v2.666a1.333 1.333 0 01-1.333 1.334h-1.79a8.011 8.011 0 01-2.21 3.297v2.703a2 2 0 01-4 0v-.778a8.05 8.05 0 01-1.334.111H12a8.05 8.05 0 01-1.334-.11v.777a2 2 0 01-4 0v-2.703A8 8 0 0112 8h3.333l6-4h.002z" stroke="#fff" stroke-width="1.5"/></g><defs><clipPath id="clip0_32_22673"><path fill="#fff" d="M0 0h32v32H0z"/></clipPath></defs></svg>