<svg width="32" height="32" fill="none" xmlns="http://www.w3.org/2000/svg"><g clip-path="url(#clip0_32_22607)" stroke="#fff" stroke-width="1.5" stroke-linecap="round" stroke-linejoin="round"><path d="M4 20a5.333 5.333 0 1010.666 0A5.333 5.333 0 004 20zm5.334 0v.013m13.332 2.654a2.667 2.667 0 105.334 0 2.667 2.667 0 00-5.334 0zm-8.666 0h8.667"/><path d="M26.666 20.267v-5.6a1.334 1.334 0 00-1.333-1.334h-8l-2.666-6.666h-8v8.666"/><path d="M24 6.667h-1.333A1.333 1.333 0 0021.333 8v5.333"/></g><defs><clipPath id="clip0_32_22607"><path fill="#fff" d="M0 0h32v32H0z"/></clipPath></defs></svg>