<svg width="32" height="32" fill="none" xmlns="http://www.w3.org/2000/svg"><g clip-path="url(#clip0_32_22415)" stroke="#fff" stroke-width="1.5" stroke-linecap="round" stroke-linejoin="round"><path d="M12 16a4 4 0 108 0 4 4 0 00-8 0z"/><path d="M16 2.667a4 4 0 014 4c0 .75-.345 1.922-1.035 3.52L18 12l2.347-2.524c.665-.8 1.229-1.333 1.693-1.607a3.957 3.957 0 015.427 1.466 4.015 4.015 0 01-1.454 5.464c-.498.29-1.32.528-2.461.713L20 16l3.2.435c1.333.193 2.264.45 2.813.768a4.015 4.015 0 01.436 6.636 3.957 3.957 0 01-4.409.292c-.464-.27-1.028-.806-1.693-1.607L18 20l.965 1.813c.688 1.6 1.035 2.772 1.035 3.52a4 4 0 11-8 0c0-.749.345-1.922 1.035-3.52L14 20l-2.347 2.524c-.665.801-1.229 1.333-1.693 1.607a3.956 3.956 0 01-5.427-1.464 4.015 4.015 0 011.454-5.464c.498-.29 1.32-.528 2.461-.715L12 16l-3.2-.433c-1.333-.194-2.264-.45-2.813-.768a4.014 4.014 0 01-1.454-5.466A3.957 3.957 0 019.96 7.868c.464.27 1.028.805 1.693 1.607L14 12c-1.333-3.056-2-4.833-2-5.333a4 4 0 014-4z"/></g><defs><clipPath id="clip0_32_22415"><path fill="#fff" d="M0 0h32v32H0z"/></clipPath></defs></svg>