<svg width="32" height="32" fill="none" xmlns="http://www.w3.org/2000/svg"><g clip-path="url(#clip0_32_22479)" stroke="#fff" stroke-width="1.5" stroke-linecap="round" stroke-linejoin="round"><path d="M5.333 17.333a10.667 10.667 0 019.334 9.334 8 8 0 004-6.667 12 12 0 008-10.667 4 4 0 00-4-4 12 12 0 00-10.667 8 8 8 0 00-6.667 4z"/><path d="M9.333 18.667a8 8 0 00-4 8 8 8 0 008-4M18.666 12a1.334 1.334 0 102.668 0 1.334 1.334 0 00-2.668 0z"/></g><defs><clipPath id="clip0_32_22479"><path fill="#fff" d="M0 0h32v32H0z"/></clipPath></defs></svg>