<svg width="32" height="32" fill="none" xmlns="http://www.w3.org/2000/svg"><g clip-path="url(#clip0_32_22028)" stroke="#fff" stroke-width="1.5" stroke-linecap="round" stroke-linejoin="round"><path d="M12 12v-1.333a4 4 0 118 0V12m-9.333 0h10.667a8 8 0 011.333 4v4a6.666 6.666 0 11-13.334 0v-4a8 8 0 011.334-4zM4 17.333h5.333m13.333 0H28m-12 9.334v-8M5.333 25.333L9.8 22.667m16.867 2.666L22.2 22.667M5.333 9.333l5 3.2m16.333-3.2l-5 3.2"/></g><defs><clipPath id="clip0_32_22028"><path fill="#fff" d="M0 0h32v32H0z"/></clipPath></defs></svg>