<svg width="32" height="32" fill="none" xmlns="http://www.w3.org/2000/svg"><g clip-path="url(#clip0_32_22351)" stroke="#fff" stroke-width="1.5" stroke-linecap="round" stroke-linejoin="round"><path d="M5.333 28C6.864 22.64 7.978 17.297 8 12h8c.023 5.297 1.137 10.64 2.667 16"/><path d="M16.666 17.333h6c.034 3.483 1.192 7.062 2.667 10.667M12 6.667a3.2 3.2 0 012.667-1.334 3.2 3.2 0 012.666 1.334A3.2 3.2 0 0020 8a3.2 3.2 0 002.667-1.333 3.2 3.2 0 012.666-1.334A3.2 3.2 0 0128 6.667M4 28h25.333"/></g><defs><clipPath id="clip0_32_22351"><path fill="#fff" d="M0 0h32v32H0z"/></clipPath></defs></svg>