<svg width="65" height="64" fill="none" xmlns="http://www.w3.org/2000/svg"><g clip-path="url(#clip0_32_32614)"><path fill="#fff" d="M16.5 18.667h37.333v26.667H16.5z"/><path d="M48.5 8a13.334 13.334 0 0113.333 13.333v21.334A13.333 13.333 0 0148.5 56h-32A13.335 13.335 0 013.166 42.667V21.333A13.333 13.333 0 0116.5 8h32zm-24 16v16a2.667 2.667 0 004.037 2.285l13.334-8a2.666 2.666 0 000-4.57l-13.334-8A2.668 2.668 0 0024.5 24z" fill="#EF0B16"/></g><defs><clipPath id="clip0_32_32614"><path fill="#fff" transform="translate(.5)" d="M0 0h64v64H0z"/></clipPath></defs></svg>